<?xml version="1.0" encoding="UTF-8" standalone="no"?>
<svg
   height="128"
   width="128"
   version="1.1"
   id="svg7"
   xmlns:xlink="http://www.w3.org/1999/xlink"
   xmlns="http://www.w3.org/2000/svg"
   xmlns:svg="http://www.w3.org/2000/svg">
  <defs
     id="defs7">
    <linearGradient
       id="linearGradient15">
      <stop
         style="stop-color:#87b3dd;stop-opacity:1;"
         offset="0"
         id="stop15" />
      <stop
         style="stop-color:#3676a1;stop-opacity:1;"
         offset="1"
         id="stop16" />
    </linearGradient>
    <radialGradient
       xlink:href="#linearGradient15"
       id="radialGradient16"
       cx="64.033997"
       cy="64.286499"
       fx="64.033997"
       fy="64.286499"
       r="46.763"
       gradientTransform="matrix(0.90697035,1.1266184,-0.68055073,0.54786903,49.707285,-43.075961)"
       gradientUnits="userSpaceOnUse" />
  </defs>
  <path
     d="m 22.927,80.295 v 3.333 q 41.107,35.754 82.214,0 v -3.333 z"
     id="path1"
     style="fill:#ffffff;stroke-width:0.101" />
  <path
     fill="#478cbf"
     d="m 22.927,80.295 15.352,1.414 q 1.212,0.101 1.515,1.414 l 0.404,6.767 13.332,1.01 0.808,-6.161 q 0.202,-1.111 1.515,-1.515 h 16.362 q 1.313,0.404 1.515,1.515 l 0.808,6.161 13.332,-1.01 0.404,-6.767 q 0.303,-1.313 1.515,-1.414 l 15.352,-1.414 V 55.449 q 3.03,-3.939 5.656,-8.181 -3.535,-5.959 -8.383,-10.908 -4.343,2.02 -8.282,4.747 -4.04,-3.737 -8.888,-6.464 0.707,-5.151 0.808,-10.302 -5.959,-2.828 -12.423,-4.242 -2.626,4.343 -4.646,8.989 -4.949,-0.707 -9.898,0 -2.02,-4.646 -4.646,-8.989 -6.464,1.414 -12.423,4.242 0.101,5.151 0.808,10.302 -4.848,2.727 -8.888,6.464 -3.939,-2.727 -8.282,-4.747 -4.848,4.949 -8.383,10.908 2.626,4.242 5.656,8.181 z m 0,3.333 v 3.939 c 0,27.876 82.113,27.876 82.113,0 v -3.939 l -13.534,1.212 -0.505,6.969 q -0.202,1.01 -1.414,1.313 l -16.362,1.111 q -1.212,0 -1.616,-1.111 l -1.01,-6.565 h -13.13 l -1.01,6.565 q -0.404,1.111 -1.616,1.111 L 38.481,93.122 Q 37.269,92.819 37.067,91.809 L 36.562,84.84 Z"
     id="path2"
     style="fill:url(#radialGradient16);stroke-width:0.101" />
  <path
     d="m 61.848322,73.995205 c 0.226104,4.28258 4.145252,4.28258 4.371356,0 v -10.83241 c -0.226104,-4.28258 -4.145252,-4.28258 -4.371356,0 z"
     id="path3"
     style="fill:#ffffff;stroke-width:0.0974334" />
  <ellipse
     cx="83.927147"
     cy="65.447998"
     id="circle3"
     style="fill:#ffffff;stroke-width:0.105499"
     rx="8.4055557"
     ry="10.725307" />
  <ellipse
     cx="44.140854"
     cy="65.447998"
     id="circle4"
     style="fill:#ffffff;stroke-width:0.105499"
     rx="8.4055557"
     ry="10.725307" />
  <ellipse
     cx="47.354156"
     cy="65.942505"
     id="circle5"
     style="fill:#414042;stroke-width:0.0744759"
     rx="4.8819051"
     ry="4.0901976" />
  <ellipse
     cx="80.713844"
     cy="65.942505"
     id="circle6"
     style="fill:#414042;stroke-width:0.0744759"
     rx="4.8819051"
     ry="4.0901976" />
  <text
     xml:space="preserve"
     style="font-style:normal;font-variant:normal;font-weight:normal;font-stretch:normal;font-size:64px;line-height:1.9;font-family:PMingLiU-ExtB;-inkscape-font-specification:PMingLiU-ExtB;text-align:center;letter-spacing:0px;writing-mode:lr-tb;text-anchor:middle;fill:#ffffff;fill-opacity:1;fill-rule:evenodd;stroke:none;stroke-opacity:1"
     x="64.169945"
     y="80.610168"
     id="text20"><tspan
       id="tspan20"
       x="64.169945"
       y="80.610168"
       style="font-style:normal;font-variant:normal;font-weight:normal;font-stretch:normal;font-size:64px;font-family:'Javanese Text';-inkscape-font-specification:'Javanese Text'">f</tspan></text>
</svg>
