<?xml version="1.0" encoding="UTF-8" standalone="no"?>
<svg
   height="128"
   width="128"
   version="1.1"
   id="svg7"
   sodipodi:docname="iconretro.svg"
   inkscape:version="1.3.2 (091e20e, 2023-11-25, custom)"
   inkscape:export-filename="iconflosh.svg"
   inkscape:export-xdpi="192"
   inkscape:export-ydpi="192"
   xmlns:inkscape="http://www.inkscape.org/namespaces/inkscape"
   xmlns:sodipodi="http://sodipodi.sourceforge.net/DTD/sodipodi-0.dtd"
   xmlns:xlink="http://www.w3.org/1999/xlink"
   xmlns="http://www.w3.org/2000/svg"
   xmlns:svg="http://www.w3.org/2000/svg">
  <defs
     id="defs7">
    <linearGradient
       id="linearGradient253"
       inkscape:collect="always">
      <stop
         style="stop-color:#ffffff;stop-opacity:1;"
         offset="0"
         id="stop252" />
      <stop
         style="stop-color:#c4c4c4;stop-opacity:1;"
         offset="1"
         id="stop253" />
    </linearGradient>
    <rect
       x="46.492271"
       y="2.1213203"
       width="123.56691"
       height="83.792154"
       id="rect19" />
    <rect
       x="11.844039"
       y="-1.4142136"
       width="78.842406"
       height="53.916892"
       id="rect9" />
    <rect
       x="41.807688"
       y="32.792077"
       width="37.476659"
       height="30.317203"
       id="rect1" />
    <linearGradient
       id="linearGradient15"
       inkscape:collect="always">
      <stop
         style="stop-color:#87b3dd;stop-opacity:1;"
         offset="0"
         id="stop15" />
      <stop
         style="stop-color:#3676a1;stop-opacity:1;"
         offset="1"
         id="stop16" />
    </linearGradient>
    <radialGradient
       inkscape:collect="always"
       xlink:href="#linearGradient15"
       id="radialGradient16"
       cx="64.033997"
       cy="64.286499"
       fx="64.033997"
       fy="64.286499"
       r="46.763"
       gradientTransform="matrix(0.90697035,1.1266184,-0.68055073,0.54786903,49.707285,-43.075961)"
       gradientUnits="userSpaceOnUse" />
    <filter
       inkscape:label="Combined Lighting"
       inkscape:menu="Bevels"
       inkscape:menu-tooltip="Basic specular bevel to use for building textures"
       style="color-interpolation-filters:sRGB;"
       id="filter54"
       x="-6.5883447"
       y="-3.5206123"
       width="14.176689"
       height="8.0412247">
      <feGaussianBlur
         stdDeviation="6"
         in="SourceGraphic"
         result="result0"
         id="feGaussianBlur52" />
      <feDiffuseLighting
         lighting-color="rgb(255,255,255)"
         diffuseConstant="1"
         surfaceScale="4"
         result="result5"
         id="feDiffuseLighting52">
        <feDistantLight
           elevation="45"
           azimuth="235"
           id="feDistantLight52" />
      </feDiffuseLighting>
      <feComposite
         k1="1.4"
         in2="SourceGraphic"
         in="result5"
         result="fbSourceGraphic"
         operator="arithmetic"
         id="feComposite52" />
      <feGaussianBlur
         result="result0"
         in="fbSourceGraphic"
         stdDeviation="6"
         id="feGaussianBlur53" />
      <feSpecularLighting
         specularExponent="25"
         specularConstant="1"
         surfaceScale="4"
         lighting-color="rgb(255,255,255)"
         result="result1"
         in="result0"
         id="feSpecularLighting53">
        <feDistantLight
           azimuth="235"
           elevation="45"
           id="feDistantLight53" />
      </feSpecularLighting>
      <feComposite
         k3="1"
         k2="1"
         operator="arithmetic"
         in="fbSourceGraphic"
         in2="result1"
         result="result4"
         id="feComposite53" />
      <feComposite
         operator="in"
         result="result2"
         in2="SourceGraphic"
         in="result4"
         id="feComposite54" />
    </filter>
    <linearGradient
       inkscape:collect="always"
       xlink:href="#linearGradient253"
       id="linearGradient250"
       x1="86.738159"
       y1="58.200153"
       x2="95.426292"
       y2="64.917671"
       gradientUnits="userSpaceOnUse" />
    <linearGradient
       inkscape:collect="always"
       xlink:href="#linearGradient253"
       id="linearGradient251"
       x1="53.501354"
       y1="55.283337"
       x2="58.83073"
       y2="64.740891"
       gradientUnits="userSpaceOnUse"
       gradientTransform="translate(-86.169136)" />
    <radialGradient
       inkscape:collect="always"
       xlink:href="#linearGradient253"
       id="radialGradient253"
       cx="68.653961"
       cy="60.637978"
       fx="68.653961"
       fy="60.637978"
       r="11.640625"
       gradientTransform="matrix(2.1383584,1.9438584,-1.7681319,1.9450489,24.596254,-186.59652)"
       gradientUnits="userSpaceOnUse" />
    <radialGradient
       inkscape:collect="always"
       xlink:href="#linearGradient253"
       id="radialGradient5"
       cx="64.033997"
       cy="0.7785781"
       fx="64.033997"
       fy="0.7785781"
       r="41.106998"
       gradientTransform="matrix(0.6518771,0.81753873,-0.740469,0.5904244,22.868212,14.840041)"
       gradientUnits="userSpaceOnUse" />
    <linearGradient
       inkscape:collect="always"
       xlink:href="#linearGradient253"
       id="linearGradient6"
       gradientUnits="userSpaceOnUse"
       x1="53.501354"
       y1="55.283337"
       x2="58.83073"
       y2="64.740891"
       gradientTransform="translate(41.899305)" />
  </defs>
  <sodipodi:namedview
     id="namedview7"
     pagecolor="#505050"
     bordercolor="#eeeeee"
     borderopacity="1"
     inkscape:showpageshadow="0"
     inkscape:pageopacity="0"
     inkscape:pagecheckerboard="0"
     inkscape:deskcolor="#505050"
     inkscape:zoom="11.313709"
     inkscape:cx="73.671685"
     inkscape:cy="65.451569"
     inkscape:window-width="1920"
     inkscape:window-height="1057"
     inkscape:window-x="-8"
     inkscape:window-y="-8"
     inkscape:window-maximized="1"
     inkscape:current-layer="svg7" />
  <path
     d="m 22.927,80.295 v 3.333 q 41.107,35.754 82.214,0 v -3.333 z"
     id="path1"
     style="fill:url(#radialGradient5);stroke-width:0.101" />
  <path
     fill="#478cbf"
     d="m 22.927,80.295 15.352,1.414 q 1.212,0.101 1.515,1.414 l 0.404,6.767 13.332,1.01 0.808,-6.161 q 0.202,-1.111 1.515,-1.515 h 16.362 q 1.313,0.404 1.515,1.515 l 0.808,6.161 13.332,-1.01 0.404,-6.767 q 0.303,-1.313 1.515,-1.414 l 15.352,-1.414 V 55.449 q 3.03,-3.939 5.656,-8.181 -3.535,-5.959 -8.383,-10.908 -4.343,2.02 -8.282,4.747 -4.04,-3.737 -8.888,-6.464 0.707,-5.151 0.808,-10.302 -5.959,-2.828 -12.423,-4.242 -2.626,4.343 -4.646,8.989 -4.949,-0.707 -9.898,0 -2.02,-4.646 -4.646,-8.989 -6.464,1.414 -12.423,4.242 0.101,5.151 0.808,10.302 -4.848,2.727 -8.888,6.464 -3.939,-2.727 -8.282,-4.747 -4.848,4.949 -8.383,10.908 2.626,4.242 5.656,8.181 z m 0,3.333 v 3.939 c 0,27.876 82.113,27.876 82.113,0 v -3.939 l -13.534,1.212 -0.505,6.969 q -0.202,1.01 -1.414,1.313 l -16.362,1.111 q -1.212,0 -1.616,-1.111 l -1.01,-6.565 h -13.13 l -1.01,6.565 q -0.404,1.111 -1.616,1.111 L 38.481,93.122 Q 37.269,92.819 37.067,91.809 L 36.562,84.84 Z"
     id="path2"
     style="fill:url(#radialGradient16);stroke-width:0.101" />
  <path
     d="m 61.848322,73.995205 c 0.226104,4.28258 4.145252,4.28258 4.371356,0 v -10.83241 c -0.226104,-4.28258 -4.145252,-4.28258 -4.371356,0 z"
     id="path3"
     style="display:none;fill:#ffffff;stroke-width:0.0974334" />
  <ellipse
     cx="84.983429"
     cy="65.447998"
     id="circle3"
     style="display:none;fill:url(#linearGradient250);fill-opacity:1;fill-rule:evenodd;stroke-width:0.0800521"
     rx="8.8518734"
     ry="5.8639483" />
  <ellipse
     cx="-43.084568"
     cy="65.447998"
     id="circle4"
     style="mix-blend-mode:normal;fill:url(#linearGradient251);fill-opacity:1;fill-rule:evenodd;stroke-width:0.0800521"
     rx="8.8518734"
     ry="5.8639483"
     transform="scale(-1,1)" />
  <text
     xml:space="preserve"
     style="font-style:normal;font-variant:normal;font-weight:normal;font-stretch:normal;font-size:64px;line-height:1.9;font-family:PMingLiU-ExtB;-inkscape-font-specification:PMingLiU-ExtB;text-align:center;letter-spacing:0px;writing-mode:lr-tb;text-anchor:middle;display:none;mix-blend-mode:normal;fill:url(#radialGradient253);fill-opacity:1;fill-rule:evenodd;stroke:none;stroke-opacity:1"
     x="64.169945"
     y="80.610168"
     id="text20"><tspan
       sodipodi:role="line"
       id="tspan20"
       x="64.169945"
       y="80.610168"
       style="font-style:normal;font-variant:normal;font-weight:normal;font-stretch:normal;font-size:64px;font-family:'Javanese Text';-inkscape-font-specification:'Javanese Text';fill:url(#radialGradient253);fill-opacity:1;fill-rule:evenodd">f</tspan></text>
  <path
     d="m 72.52932,34.672668 q 1.65625,0 2.96875,0.4375 1.34375,0.40625 2.28125,1.15625 0.9375,0.71875 1.4375,1.6875 0.5,0.96875 0.5,2.0625 0,1.5625 -0.9375,2.5625 -0.90625,1 -2.375,1 -0.625,0 -1.21875,-0.21875 -0.59375,-0.21875 -1.0625,-0.625 -0.4375,-0.40625 -0.71875,-1 -0.25,-0.59375 -0.25,-1.34375 0,-0.8125 0.34375,-1.625 0.34375,-0.84375 1.0625,-1.46875 -0.875,-0.3125 -2.28125,-0.3125 -1.1875,0 -2.21875,0.3125 -1,0.28125 -1.75,1.375 -0.71875,1.0625 -1.15625,3.15625 -0.40625,2.0625 -0.40625,5.625 v 6.53125 h 6.875 v 2.5 h -6.875 v 21.625 h 5 v 2.5 h -15.3125 v -2.5 h 4.6875 v -21.625 h -4.6875 v -2.5 h 4.6875 v -3.125 q 0,-4 0.84375,-7.03125 0.84375,-3.03125 2.34375,-5.0625 1.53125,-2.03125 3.625,-3.0625 2.09375,-1.03125 4.59375,-1.03125 z"
     id="text6"
     style="font-size:64px;line-height:1.9;font-family:'Javanese Text';-inkscape-font-specification:'Javanese Text';text-align:center;letter-spacing:0px;fill:url(#radialGradient253);fill-rule:evenodd"
     aria-label="f" />
  <ellipse
     cx="84.983871"
     cy="65.447998"
     id="ellipse6"
     style="mix-blend-mode:normal;fill:url(#linearGradient6);fill-opacity:1;fill-rule:evenodd;stroke-width:0.0800521"
     rx="8.8518734"
     ry="5.8639483" />
</svg>
